<?xml version="1.0" standalone="no"?><!DOCTYPE svg PUBLIC "-//W3C//DTD SVG 1.1//EN" "http://www.w3.org/Graphics/SVG/1.1/DTD/svg11.dtd"><svg t="1682213498188" class="icon" viewBox="0 0 1024 1024" version="1.1" xmlns="http://www.w3.org/2000/svg" p-id="1052" xmlns:xlink="http://www.w3.org/1999/xlink" width="200" height="200"><path d="M537.157 879.42c45.637 0 23.488-75.659 23.105-99.913-0.875-53.266 67.402-94.609 105.219-122.609 61.305-45.527 118.343-118.781 124.03-197.75C801.68 288.77 664.142 165.75 537.157 76.501 410.091 165.75 272.525 288.77 284.748 459.148c5.66 78.968 62.699 152.222 124.031 197.75 37.734 28 105.984 69.344 105.191 122.609-0.356 24.254-22.614 99.913 23.187 99.913z" fill="#00666F" p-id="1053"></path><path d="M688.587 479.137c-4.102-7.328-13.262-9.844-20.508-5.797l-115.855 65.788V388.027l106.832-76.563c6.727-4.895 8.367-14.301 3.555-21.219-4.867-6.781-14.273-8.422-21.082-3.582l-89.305 64.066v-109.92c0-8.395-6.809-15.203-15.066-15.203-8.422 0-15.148 6.809-15.148 15.203V350.73l-89.332-64.039c-6.836-4.867-16.215-3.227-21.109 3.582-4.813 6.863-3.172 16.297 3.637 21.191L522.009 388v151.183l-115.773-65.815c-7.301-4.129-16.543-1.559-20.672 5.77-4.047 7.355-1.395 16.625 5.77 20.781l130.675 74.183v102.621c0 8.367 6.727 15.176 15.148 15.176 8.258 0 15.066-6.809 15.066-15.176V574.101l130.594-74.183c7.246-4.156 9.844-13.508 5.77-20.781z" fill="#C8D62C" p-id="1054"></path></svg>