<?xml version="1.0" standalone="no"?><!DOCTYPE svg PUBLIC "-//W3C//DTD SVG 1.1//EN" "http://www.w3.org/Graphics/SVG/1.1/DTD/svg11.dtd">
<svg t="1681528943634" class="icon" viewBox="0 0 1024 1024" version="1.1"
	xmlns="http://www.w3.org/2000/svg" p-id="5584"
	xmlns:xlink="http://www.w3.org/1999/xlink" width="200" height="200">
	<path d="M548.864 886.41536h-60.53888a8.192 8.192 0 0 1-8.192-8.192V414.67904c0-4.5056 3.6864-8.192 8.192-8.192H548.864c4.5056 0 8.192 3.6864 8.192 8.192V878.1824a8.192 8.192 0 0 1-8.192 8.23296z" p-id="5585"></path>
	<path d="M304.25088 886.41536H243.712a8.192 8.192 0 0 1-8.192-8.192v-353.44384c0-4.5056 3.6864-8.192 8.192-8.192h60.53888c4.5056 0 8.192 3.6864 8.192 8.192v353.44384a8.192 8.192 0 0 1-8.192 8.192z" p-id="5586"></path>
	<path d="M227.328 886.41536H166.78912a8.192 8.192 0 0 1-8.192-8.192v-210.41152c0-4.5056 3.6864-8.192 8.192-8.192H227.328c4.5056 0 8.192 3.6864 8.192 8.192v210.41152a8.192 8.192 0 0 1-8.192 8.192z" p-id="5587"></path>
	<path d="M471.81824 886.784h-60.53888a8.192 8.192 0 0 1-8.192-8.192v-353.44384c0-4.5056 3.6864-8.192 8.192-8.192h60.53888c4.5056 0 8.192 3.6864 8.192 8.192v353.44384a8.192 8.192 0 0 1-8.192 8.192z" p-id="5588"></path>
	<path d="M788.35712 886.41536h-60.53888a8.192 8.192 0 0 1-8.192-8.192V279.552c0-4.5056 3.6864-8.192 8.192-8.192h60.53888c4.5056 0 8.192 3.6864 8.192 8.192V878.1824a8.192 8.192 0 0 1-8.192 8.23296z" p-id="5589"></path>
	<path d="M712.13056 886.41536h-60.53888a8.192 8.192 0 0 1-8.192-8.192V332.92288c0-4.5056 3.6864-8.192 8.192-8.192h60.53888c4.5056 0 8.192 3.6864 8.192 8.192v545.30048a8.192 8.192 0 0 1-8.192 8.192z" p-id="5590"></path>
	<path d="M31.3344 880.59904v7.33184c0 5.69344 4.62848 10.32192 10.32192 10.32192h940.72832a10.32192 10.32192 0 0 0 10.32192-10.32192v-7.33184a10.32192 10.32192 0 0 0-10.32192-10.32192H41.65632a10.32192 10.32192 0 0 0-10.32192 10.32192z" p-id="5591"></path>
	<path d="M41.65632 898.21184h7.33184a10.32192 10.32192 0 0 0 10.32192-10.32192V136.11008a10.32192 10.32192 0 0 0-10.32192-10.32192h-7.33184a10.32192 10.32192 0 0 0-10.32192 10.32192v751.8208c0 5.65248 4.62848 10.28096 10.32192 10.28096z" p-id="5592"></path>
</svg>