<?xml version="1.0" standalone="no"?><!DOCTYPE svg PUBLIC "-//W3C//DTD SVG 1.1//EN" "http://www.w3.org/Graphics/SVG/1.1/DTD/svg11.dtd">
<svg
  t="1678093533310"
  class="icon"
  viewBox="0 0 1024 1024"
  version="1.1"
  xmlns="http://www.w3.org/2000/svg"
  p-id="7173"
  xmlns:xlink="http://www.w3.org/1999/xlink"
  width="200"
  height="200"
>
  <path
    d="M213.6064 688.128c-111.4112 0-202.1376-90.7264-202.1376-202.1376 0-111.4112 90.7264-202.1376 202.1376-202.1376 111.4112 0 202.1376 90.7264 202.1376 202.1376C415.744 597.4016 325.0176 688.128 213.6064 688.128zM213.6064 300.4416c-102.4 0-185.7536 83.3536-185.7536 185.7536 0 102.4 83.3536 185.7536 185.7536 185.7536 102.4 0 185.7536-83.3536 185.7536-185.7536C399.36 383.5904 316.0064 300.4416 213.6064 300.4416z"
    p-id="7174"
    fill="rgba(255, 255, 255, 0.65)"
  ></path>
  <path
    d="M516.7104 688.128c-111.4112 0-202.1376-90.7264-202.1376-202.1376 0-111.4112 90.7264-202.1376 202.1376-202.1376 111.4112 0 202.1376 90.7264 202.1376 202.1376C718.848 597.4016 628.1216 688.128 516.7104 688.128zM516.7104 300.4416c-102.4 0-185.7536 83.3536-185.7536 185.7536 0 102.4 83.3536 185.7536 185.7536 185.7536 102.4 0 185.7536-83.3536 185.7536-185.7536C702.464 383.5904 619.1104 300.4416 516.7104 300.4416z"
    p-id="7175"
    fill="rgba(255, 255, 255, 0.65)"
  ></path>
  <path
    d="M819.8144 688.128c-111.4112 0-202.1376-90.7264-202.1376-202.1376 0-111.4112 90.7264-202.1376 202.1376-202.1376 111.4112 0 202.1376 90.7264 202.1376 202.1376C1021.952 597.4016 931.2256 688.128 819.8144 688.128zM819.8144 300.4416c-102.4 0-185.7536 83.3536-185.7536 185.7536 0 102.4 83.3536 185.7536 185.7536 185.7536 102.4 0 185.7536-83.3536 185.7536-185.7536C1005.568 383.5904 922.2144 300.4416 819.8144 300.4416z"
    p-id="7176"
    fill="rgba(255, 255, 255, 0.65)"
  ></path>
</svg>
